<svg id="svg" version="1.1" width="400" height="400" xmlns="http://www.w3.org/2000/svg" xmlns:xlink="http://www.w3.org/1999/xlink" style="display: block;"><g id="svgg"><path id="path0" d="" stroke="none" fill="#000000" fill-rule="evenodd"></path><path id="path1" d="" stroke="none" fill="#550000" fill-rule="evenodd"></path><path id="path2" d="" stroke="none" fill="#990000" fill-rule="evenodd"></path><path id="path3" d="" stroke="none" fill="#d10000" fill-rule="evenodd"></path><path id="path4" d="M79.709 1.600 C 79.709 2.590,79.787 2.995,79.882 2.500 C 79.978 2.005,79.978 1.195,79.882 0.700 C 79.787 0.205,79.709 0.610,79.709 1.600 M94.600 2.289 C 95.040 2.398,95.625 2.669,95.900 2.892 C 96.238 3.167,96.400 3.167,96.400 2.892 C 96.400 2.413,95.412 1.981,94.467 2.046 C 93.975 2.081,94.010 2.144,94.600 2.289 M131.000 11.495 C 131.660 11.592,132.425 11.857,132.700 12.084 C 133.034 12.360,133.200 12.363,133.200 12.092 C 133.200 11.550,132.180 11.186,130.867 11.260 C 129.848 11.317,129.854 11.328,131.000 11.495 M166.100 20.676 C 166.485 20.776,167.115 20.776,167.500 20.676 C 167.885 20.575,167.570 20.493,166.800 20.493 C 166.030 20.493,165.715 20.575,166.100 20.676 M171.200 22.155 C 171.200 22.483,173.646 22.649,173.841 22.333 C 173.955 22.150,173.407 22.000,172.624 22.000 C 171.841 22.000,171.200 22.070,171.200 22.155 M201.105 29.883 C 201.602 29.979,202.322 29.975,202.705 29.875 C 203.087 29.775,202.680 29.696,201.800 29.701 C 200.920 29.705,200.607 29.787,201.105 29.883 M72.000 31.176 C 72.000 31.849,72.069 32.400,72.153 32.400 C 72.493 32.400,72.669 30.366,72.346 30.167 C 72.156 30.049,72.000 30.503,72.000 31.176 M208.000 31.477 C 208.550 31.589,209.149 31.888,209.330 32.140 C 209.551 32.448,209.607 32.401,209.500 32.000 C 209.409 31.662,208.829 31.372,208.169 31.337 C 207.162 31.282,207.139 31.301,208.000 31.477 M248.800 41.877 C 249.350 41.989,249.949 42.288,250.130 42.540 C 250.351 42.848,250.407 42.801,250.300 42.400 C 250.209 42.062,249.629 41.772,248.969 41.737 C 247.962 41.682,247.939 41.701,248.800 41.877 M253.600 43.093 C 254.150 43.194,254.825 43.461,255.100 43.687 C 255.435 43.963,255.600 43.964,255.600 43.692 C 255.600 43.178,254.594 42.784,253.467 42.854 C 252.712 42.902,252.729 42.933,253.600 43.093 M284.200 51.071 C 284.640 51.189,285.254 51.492,285.565 51.743 C 286.009 52.102,286.088 52.072,285.934 51.600 C 285.826 51.270,285.212 50.968,284.569 50.928 C 283.835 50.883,283.697 50.936,284.200 51.071 M315.443 59.367 C 315.576 59.715,315.861 60.000,316.076 60.000 C 316.602 60.000,316.273 59.091,315.675 58.892 C 315.382 58.794,315.293 58.977,315.443 59.367 M334.400 64.156 C 334.400 64.242,335.017 64.385,335.772 64.473 C 336.527 64.561,337.056 64.490,336.948 64.316 C 336.755 64.003,334.400 63.855,334.400 64.156 M61.374 71.759 C 61.242 72.287,61.214 73.142,61.312 73.659 C 61.439 74.328,61.507 74.189,61.546 73.180 C 61.575 72.399,61.816 71.544,62.080 71.280 C 62.445 70.915,62.447 70.800,62.088 70.800 C 61.828 70.800,61.507 71.232,61.374 71.759 M371.200 73.477 C 371.750 73.589,372.349 73.888,372.530 74.140 C 372.751 74.448,372.807 74.401,372.700 74.000 C 372.609 73.662,372.029 73.372,371.369 73.337 C 370.362 73.282,370.339 73.301,371.200 73.477 M386.800 77.493 C 387.350 77.594,388.029 77.865,388.309 78.095 C 388.694 78.411,388.757 78.353,388.566 77.857 C 388.399 77.422,387.890 77.218,387.057 77.254 C 385.963 77.302,385.929 77.333,386.800 77.493 M396.100 79.876 C 396.485 79.976,397.115 79.976,397.500 79.876 C 397.885 79.775,397.570 79.693,396.800 79.693 C 396.030 79.693,395.715 79.775,396.100 79.876 M396.460 99.420 C 396.427 100.091,396.187 100.853,395.927 101.113 C 395.666 101.374,395.562 101.695,395.694 101.828 C 396.126 102.259,396.854 100.388,396.685 99.280 C 396.525 98.235,396.518 98.240,396.460 99.420 M394.860 105.267 C 394.827 105.853,394.575 106.414,394.300 106.512 C 394.025 106.610,393.895 106.795,394.012 106.923 C 394.524 107.488,395.252 106.432,395.092 105.357 C 394.921 104.207,394.919 104.207,394.860 105.267 M49.756 117.371 C 49.635 117.685,49.616 118.360,49.714 118.871 C 49.852 119.597,49.903 119.523,49.946 118.533 C 49.975 117.837,50.225 117.176,50.500 117.065 C 50.892 116.907,50.889 116.856,50.487 116.832 C 50.206 116.814,49.876 117.057,49.756 117.371 M391.392 117.624 C 391.246 118.084,391.233 118.567,391.363 118.697 C 391.494 118.827,391.600 118.648,391.600 118.300 C 391.600 117.952,391.816 117.595,392.080 117.507 C 392.430 117.390,392.438 117.271,392.109 117.067 C 391.847 116.905,391.546 117.139,391.392 117.624 M48.389 122.821 C 48.147 123.272,48.030 123.947,48.128 124.321 C 48.261 124.823,48.319 124.773,48.354 124.129 C 48.379 123.649,48.683 122.974,49.029 122.629 C 49.374 122.283,49.471 122.000,49.243 122.000 C 49.015 122.000,48.630 122.369,48.389 122.821 M389.654 126.267 C 389.625 126.963,389.375 127.624,389.100 127.735 C 388.708 127.893,388.711 127.944,389.113 127.968 C 389.771 128.009,390.112 127.112,389.886 125.929 C 389.748 125.203,389.697 125.277,389.654 126.267 M42.806 144.100 C 42.810 144.984,42.923 145.226,43.157 144.856 C 43.472 144.359,43.317 142.800,42.953 142.800 C 42.869 142.800,42.803 143.385,42.806 144.100 M383.301 150.600 C 383.305 151.480,383.387 151.793,383.483 151.295 C 383.579 150.798,383.575 150.078,383.475 149.695 C 383.375 149.313,383.296 149.720,383.301 150.600 M40.400 153.776 C 40.400 154.559,40.470 155.200,40.555 155.200 C 40.883 155.200,41.049 152.754,40.733 152.559 C 40.550 152.445,40.400 152.993,40.400 153.776 M38.893 159.600 C 38.893 160.370,38.975 160.685,39.076 160.300 C 39.176 159.915,39.176 159.285,39.076 158.900 C 38.975 158.515,38.893 158.830,38.893 159.600 M380.446 161.820 C 380.421 162.271,380.184 162.856,379.920 163.120 C 379.547 163.493,379.549 163.600,379.933 163.600 C 380.554 163.600,380.925 162.668,380.680 161.723 C 380.519 161.099,380.486 161.113,380.446 161.820 M180.000 164.312 C 180.000 164.876,181.638 165.348,182.668 165.082 C 183.110 164.968,182.917 164.874,182.180 164.846 C 181.509 164.821,180.744 164.584,180.480 164.320 C 180.115 163.955,180.000 163.953,180.000 164.312 M378.093 172.000 C 378.093 172.770,378.175 173.085,378.276 172.700 C 378.376 172.315,378.376 171.685,378.276 171.300 C 378.175 170.915,378.093 171.230,378.093 172.000 M175.246 175.020 C 175.221 175.471,174.984 176.056,174.720 176.320 C 174.347 176.693,174.349 176.800,174.733 176.800 C 175.354 176.800,175.725 175.868,175.480 174.923 C 175.319 174.299,175.286 174.313,175.246 175.020 M222.092 174.875 C 222.291 175.473,223.200 175.802,223.200 175.276 C 223.200 175.061,222.915 174.776,222.567 174.643 C 222.177 174.493,221.994 174.582,222.092 174.875 M226.100 176.000 C 226.191 176.338,226.771 176.628,227.431 176.663 C 228.438 176.718,228.461 176.699,227.600 176.523 C 227.050 176.411,226.451 176.112,226.270 175.860 C 226.049 175.552,225.993 175.599,226.100 176.000 M231.206 177.086 C 231.197 177.835,232.586 178.406,234.274 178.347 C 235.734 178.295,235.717 178.282,233.872 178.025 C 232.812 177.878,231.780 177.497,231.578 177.179 C 231.340 176.802,231.210 176.770,231.206 177.086 M376.460 177.667 C 376.427 178.253,376.175 178.814,375.900 178.912 C 375.625 179.010,375.495 179.195,375.612 179.323 C 376.124 179.888,376.852 178.832,376.692 177.757 C 376.521 176.607,376.519 176.607,376.460 177.667 M33.693 180.800 C 33.693 181.570,33.775 181.885,33.876 181.500 C 33.976 181.115,33.976 180.485,33.876 180.100 C 33.775 179.715,33.693 180.030,33.693 180.800 M374.093 186.400 C 374.093 187.170,374.175 187.485,374.276 187.100 C 374.376 186.715,374.376 186.085,374.276 185.700 C 374.175 185.315,374.093 185.630,374.093 186.400 M233.701 187.400 C 233.705 188.280,233.787 188.593,233.883 188.095 C 233.979 187.598,233.975 186.878,233.875 186.495 C 233.775 186.113,233.696 186.520,233.701 187.400 M31.700 187.888 C 31.425 187.986,31.225 188.637,31.254 189.333 C 31.302 190.431,31.334 190.467,31.495 189.600 C 31.597 189.050,31.882 188.475,32.129 188.322 C 32.691 187.972,32.371 187.648,31.700 187.888 M232.667 190.667 C 232.520 190.813,232.415 191.398,232.434 191.967 C 232.468 192.981,232.475 192.979,232.821 191.820 C 233.185 190.603,233.131 190.202,232.667 190.667 M30.229 193.429 C 29.883 193.774,29.625 194.539,29.654 195.129 L 29.709 196.200 29.891 195.200 C 29.991 194.650,30.354 193.885,30.698 193.500 C 31.476 192.630,31.086 192.571,30.229 193.429 M229.693 203.200 C 229.693 203.970,229.775 204.285,229.876 203.900 C 229.976 203.515,229.976 202.885,229.876 202.500 C 229.775 202.115,229.693 202.430,229.693 203.200 M369.200 204.199 C 368.906 204.749,368.786 205.319,368.933 205.466 C 369.080 205.613,369.200 205.433,369.200 205.067 C 369.200 204.700,369.361 204.400,369.557 204.400 C 369.754 204.400,370.018 204.130,370.145 203.800 C 370.525 202.808,369.775 203.125,369.200 204.199 M167.254 205.467 C 167.225 205.943,166.975 206.414,166.700 206.512 C 166.425 206.610,166.295 206.795,166.412 206.923 C 166.881 207.440,167.659 206.452,167.489 205.555 C 167.323 204.676,167.305 204.669,167.254 205.467 M367.112 213.218 C 367.014 213.887,367.083 214.528,367.267 214.641 C 367.450 214.755,367.600 214.207,367.600 213.424 C 367.600 211.679,367.353 211.575,367.112 213.218 M164.909 214.800 C 164.909 215.790,164.987 216.195,165.082 215.700 C 165.178 215.205,165.178 214.395,165.082 213.900 C 164.987 213.405,164.909 213.810,164.909 214.800 M163.748 217.392 C 163.417 218.253,163.686 218.443,164.296 217.781 C 164.611 217.439,164.647 217.152,164.393 216.996 C 164.174 216.860,163.883 217.038,163.748 217.392 M164.400 222.295 C 164.950 222.397,165.525 222.682,165.678 222.929 C 165.831 223.175,166.074 223.259,166.218 223.115 C 166.753 222.580,165.912 222.002,164.676 222.054 C 163.577 222.101,163.539 222.135,164.400 222.295 M364.698 222.500 C 364.595 222.775,364.653 223.360,364.827 223.800 C 365.085 224.451,365.149 224.359,365.172 223.300 C 365.201 221.948,365.020 221.642,364.698 222.500 M22.400 224.800 C 22.083 224.996,21.956 225.289,22.118 225.452 C 22.281 225.614,22.623 225.537,22.880 225.280 C 23.484 224.676,23.147 224.338,22.400 224.800 M175.600 224.720 C 175.600 225.241,176.514 226.000,177.141 226.000 C 177.536 226.000,177.426 225.743,176.800 225.200 C 175.784 224.318,175.600 224.245,175.600 224.720 M223.354 226.577 C 223.232 226.894,223.217 227.479,223.320 227.877 C 223.446 228.364,223.522 228.252,223.554 227.533 C 223.579 226.947,223.825 226.376,224.100 226.265 C 224.492 226.107,224.489 226.056,224.087 226.032 C 223.806 226.014,223.475 226.259,223.354 226.577 M20.493 230.800 C 20.493 231.570,20.575 231.885,20.676 231.500 C 20.776 231.115,20.776 230.485,20.676 230.100 C 20.575 229.715,20.493 230.030,20.493 230.800 M194.000 229.895 C 194.770 229.987,195.715 230.346,196.100 230.693 C 196.970 231.477,197.030 231.087,196.171 230.229 C 195.796 229.853,194.950 229.626,194.071 229.664 L 192.600 229.728 194.000 229.895 M199.800 231.485 C 200.240 231.591,200.771 231.840,200.980 232.039 C 201.570 232.599,202.000 232.465,201.745 231.800 C 201.601 231.427,201.039 231.218,200.257 231.246 C 199.417 231.277,199.265 231.357,199.800 231.485 M18.101 240.600 C 18.105 241.480,18.187 241.793,18.283 241.295 C 18.379 240.798,18.375 240.078,18.275 239.695 C 18.175 239.313,18.096 239.720,18.101 240.600 M358.046 248.867 C 358.021 249.453,357.775 250.024,357.500 250.135 C 357.108 250.293,357.111 250.344,357.513 250.368 C 358.147 250.408,358.530 249.487,358.280 248.523 C 358.154 248.036,358.078 248.148,358.046 248.867 M16.432 248.900 C 16.414 249.285,16.239 249.600,16.043 249.600 C 15.846 249.600,15.582 249.870,15.455 250.200 C 15.329 250.530,15.393 250.800,15.598 250.800 C 16.121 250.800,16.892 249.255,16.658 248.678 C 16.551 248.415,16.449 248.515,16.432 248.900 M355.552 259.113 C 355.421 259.907,355.479 260.281,355.701 260.059 C 355.903 259.857,356.001 259.267,355.919 258.746 C 355.793 257.945,355.737 258.002,355.552 259.113 M354.054 264.667 C 354.025 265.143,353.775 265.614,353.500 265.712 C 353.225 265.810,353.138 266.038,353.307 266.219 C 353.813 266.761,354.481 265.760,354.288 264.746 C 354.122 263.867,354.105 263.861,354.054 264.667 M11.356 266.571 C 11.235 266.885,11.204 267.560,11.286 268.071 C 11.395 268.754,11.488 268.604,11.637 267.500 C 11.847 265.947,11.736 265.581,11.356 266.571 M9.300 274.688 C 9.025 274.786,8.821 275.437,8.846 276.133 C 8.878 276.985,8.957 277.138,9.089 276.600 C 9.198 276.160,9.472 275.571,9.700 275.290 C 10.183 274.695,10.010 274.434,9.300 274.688 M5.067 290.667 C 4.920 290.813,4.815 291.398,4.834 291.967 C 4.868 292.981,4.875 292.979,5.221 291.820 C 5.585 290.603,5.531 290.202,5.067 290.667 M346.432 294.369 C 346.414 294.901,346.095 295.674,345.722 296.086 C 345.085 296.790,345.086 296.819,345.726 296.573 C 346.461 296.291,347.007 294.756,346.671 293.917 C 346.557 293.633,346.449 293.836,346.432 294.369 M344.700 300.210 C 344.594 300.765,344.663 301.315,344.854 301.433 C 345.044 301.551,345.200 301.097,345.200 300.424 C 345.200 298.939,344.963 298.837,344.700 300.210 M2.093 303.200 C 2.093 303.970,2.175 304.285,2.276 303.900 C 2.376 303.515,2.376 302.885,2.276 302.500 C 2.175 302.115,2.093 302.430,2.093 303.200 M3.700 320.800 C 3.791 321.138,4.371 321.428,5.031 321.463 C 6.038 321.518,6.061 321.499,5.200 321.323 C 4.650 321.211,4.051 320.912,3.870 320.660 C 3.649 320.352,3.593 320.399,3.700 320.800 M24.967 326.454 C 24.849 326.644,25.303 326.800,25.976 326.800 C 26.649 326.800,27.200 326.731,27.200 326.647 C 27.200 326.307,25.166 326.131,24.967 326.454 M31.600 328.027 C 30.730 328.282,30.795 328.325,32.100 328.360 C 33.623 328.401,34.006 328.228,33.100 327.910 C 32.825 327.813,32.150 327.866,31.600 328.027 M49.284 332.558 C 49.568 332.865,49.938 333.032,50.107 332.930 C 50.564 332.653,50.040 332.000,49.361 332.000 C 48.874 332.000,48.861 332.100,49.284 332.558 M51.500 333.482 C 51.995 333.578,52.805 333.578,53.300 333.482 C 53.795 333.387,53.390 333.309,52.400 333.309 C 51.410 333.309,51.005 333.387,51.500 333.482 M60.098 335.300 C 60.188 335.575,60.788 335.829,61.431 335.863 C 62.246 335.908,62.328 335.869,61.700 335.736 C 61.205 335.630,60.800 335.377,60.800 335.172 C 60.800 334.967,60.605 334.800,60.367 334.800 C 60.128 334.800,60.007 335.025,60.098 335.300 M335.693 336.000 C 335.693 336.770,335.775 337.085,335.876 336.700 C 335.976 336.315,335.976 335.685,335.876 335.300 C 335.775 334.915,335.693 335.230,335.693 336.000 M66.341 337.301 C 66.543 337.503,67.133 337.601,67.654 337.519 C 68.455 337.393,68.398 337.337,67.287 337.152 C 66.493 337.021,66.119 337.079,66.341 337.301 M76.100 339.200 C 76.200 339.569,76.788 339.822,77.631 339.856 C 78.885 339.908,78.899 339.897,77.801 339.720 C 77.142 339.614,76.453 339.319,76.271 339.064 C 76.047 338.751,75.991 338.795,76.100 339.200 M90.590 343.584 C 90.732 343.813,91.317 344.000,91.890 344.000 C 93.144 344.000,92.999 343.808,91.466 343.440 C 90.723 343.262,90.421 343.311,90.590 343.584 M111.767 348.854 C 111.649 349.044,112.103 349.200,112.776 349.200 C 113.449 349.200,114.000 349.131,114.000 349.047 C 114.000 348.707,111.966 348.531,111.767 348.854 M121.100 350.682 C 121.595 350.778,122.000 351.034,122.000 351.251 C 122.000 351.469,122.199 351.524,122.443 351.374 C 123.036 351.007,122.071 350.396,121.000 350.461 C 120.310 350.502,120.324 350.533,121.100 350.682 M138.100 355.876 C 138.485 355.976,139.115 355.976,139.500 355.876 C 139.885 355.775,139.570 355.693,138.800 355.693 C 138.030 355.693,137.715 355.775,138.100 355.876 M330.454 356.467 C 330.425 356.834,330.284 357.464,330.141 357.867 C 329.941 358.433,329.995 358.496,330.375 358.146 C 330.646 357.897,330.787 357.267,330.688 356.746 C 330.590 356.226,330.484 356.100,330.454 356.467 M147.055 357.800 C 147.200 358.178,147.751 358.378,148.543 358.340 C 149.752 358.282,149.758 358.274,148.700 358.113 C 148.095 358.022,147.600 357.779,147.600 357.573 C 147.600 357.368,147.426 357.200,147.213 357.200 C 146.999 357.200,146.929 357.470,147.055 357.800 M162.866 361.600 C 162.974 361.930,163.588 362.232,164.231 362.272 C 164.965 362.317,165.103 362.264,164.600 362.129 C 164.160 362.011,163.546 361.708,163.235 361.457 C 162.791 361.098,162.712 361.128,162.866 361.600 M328.060 365.071 C 328.027 365.771,327.717 366.626,327.371 366.971 C 327.026 367.317,326.929 367.600,327.157 367.600 C 327.822 367.600,328.463 366.053,328.285 364.880 C 328.132 363.877,328.116 363.890,328.060 365.071 M198.500 370.800 C 198.591 371.138,199.171 371.428,199.831 371.463 C 200.838 371.518,200.861 371.499,200.000 371.323 C 199.450 371.211,198.851 370.912,198.670 370.660 C 198.449 370.352,198.393 370.399,198.500 370.800 M325.168 376.500 C 325.049 377.360,325.110 377.850,325.312 377.648 C 325.505 377.455,325.598 376.781,325.519 376.149 C 325.387 375.091,325.359 375.119,325.168 376.500 M324.054 380.820 C 324.025 381.601,323.784 382.456,323.520 382.720 C 323.155 383.085,323.153 383.200,323.512 383.200 C 324.096 383.200,324.528 381.606,324.288 380.341 C 324.161 379.672,324.093 379.811,324.054 380.820 M245.700 383.476 C 246.085 383.576,246.715 383.576,247.100 383.476 C 247.485 383.375,247.170 383.293,246.400 383.293 C 245.630 383.293,245.315 383.375,245.700 383.476 M249.666 384.000 C 249.774 384.330,250.388 384.632,251.031 384.672 C 251.765 384.717,251.903 384.664,251.400 384.529 C 250.960 384.411,250.346 384.108,250.035 383.857 C 249.591 383.498,249.512 383.528,249.666 384.000 M280.000 391.912 C 280.000 392.456,281.714 392.979,282.483 392.671 C 282.767 392.557,282.541 392.449,281.980 392.432 C 281.419 392.414,280.744 392.184,280.480 391.920 C 280.115 391.555,280.000 391.553,280.000 391.912 M285.300 393.200 C 285.391 393.538,285.971 393.828,286.631 393.863 C 287.638 393.918,287.661 393.899,286.800 393.723 C 286.250 393.611,285.651 393.312,285.470 393.060 C 285.249 392.752,285.193 392.799,285.300 393.200 M297.505 396.683 C 298.002 396.779,298.722 396.775,299.105 396.675 C 299.487 396.575,299.080 396.496,298.200 396.501 C 297.320 396.505,297.007 396.587,297.505 396.683 M319.462 398.731 C 319.098 399.134,318.800 399.611,318.800 399.793 C 318.800 399.974,319.160 399.707,319.600 399.200 C 320.040 398.693,320.400 398.215,320.400 398.139 C 320.400 397.839,320.095 398.032,319.462 398.731 " stroke="none" fill="#d81400" fill-rule="evenodd"></path><path id="path5" d="M80.370 0.700 C 80.311 2.087,79.990 3.243,79.422 4.113 C 79.104 4.601,78.800 5.865,78.746 6.923 C 78.692 7.980,78.431 8.970,78.166 9.123 C 77.901 9.275,77.576 10.480,77.443 11.800 C 77.311 13.119,77.021 14.260,76.799 14.334 C 76.577 14.408,76.497 14.633,76.621 14.834 C 76.745 15.035,76.687 15.200,76.492 15.200 C 76.296 15.200,76.115 16.128,76.089 17.263 C 76.062 18.477,75.828 19.463,75.521 19.657 C 75.235 19.839,75.126 19.991,75.281 19.994 C 75.435 19.997,75.321 20.800,75.026 21.779 C 74.732 22.757,74.585 23.652,74.700 23.766 C 74.814 23.881,74.634 24.394,74.298 24.906 C 73.962 25.419,73.569 26.713,73.424 27.782 C 73.279 28.852,72.998 30.030,72.800 30.400 C 72.602 30.770,72.322 31.957,72.178 33.037 C 72.034 34.116,71.755 35.198,71.559 35.440 C 71.362 35.683,71.086 36.763,70.945 37.840 C 70.804 38.918,70.505 40.158,70.279 40.596 C 69.867 41.397,69.635 42.511,69.478 44.442 C 69.432 45.016,69.174 45.749,68.906 46.073 C 68.637 46.396,68.308 47.367,68.173 48.230 C 68.038 49.094,67.693 50.070,67.405 50.400 C 67.118 50.730,66.875 51.780,66.866 52.733 C 66.857 53.686,66.590 54.861,66.273 55.345 C 65.956 55.828,65.686 56.998,65.673 57.945 C 65.660 58.891,65.361 60.105,65.009 60.642 C 64.657 61.179,64.402 61.840,64.443 62.109 C 64.602 63.166,63.860 66.079,63.384 66.261 C 63.069 66.382,62.872 67.287,62.855 68.695 C 62.841 69.927,62.654 71.043,62.440 71.175 C 62.227 71.307,61.927 72.402,61.774 73.608 C 61.621 74.813,61.227 76.109,60.898 76.487 C 60.569 76.865,60.396 77.540,60.512 77.987 C 60.629 78.434,60.605 78.800,60.458 78.800 C 60.312 78.800,60.169 79.362,60.140 80.049 C 60.112 80.736,59.890 81.421,59.647 81.571 C 59.403 81.722,59.089 82.915,58.949 84.222 C 58.808 85.530,58.583 86.690,58.447 86.800 C 58.124 87.062,57.950 87.808,57.700 90.000 C 57.588 90.990,57.302 92.043,57.065 92.340 C 56.829 92.638,56.599 93.088,56.556 93.340 C 56.206 95.366,55.986 96.135,55.639 96.553 C 55.418 96.819,55.234 97.389,55.229 97.818 C 55.210 99.654,54.935 100.722,54.326 101.331 C 53.900 101.757,53.671 102.691,53.661 104.053 C 53.652 105.192,53.500 106.232,53.322 106.363 C 52.938 106.646,52.815 107.153,52.511 109.718 C 52.385 110.787,52.068 111.875,51.808 112.135 C 51.547 112.396,51.220 113.571,51.081 114.747 C 50.942 115.923,50.662 117.091,50.459 117.342 C 50.256 117.594,49.960 118.790,49.802 120.000 C 49.643 121.210,49.288 122.470,49.011 122.800 C 48.735 123.130,48.490 124.077,48.466 124.904 C 48.443 125.731,48.209 126.809,47.946 127.300 C 47.483 128.166,47.321 128.894,47.036 131.400 C 46.960 132.060,46.681 133.140,46.414 133.800 C 46.147 134.460,45.857 135.359,45.768 135.799 C 45.680 136.238,45.425 136.658,45.201 136.733 C 44.978 136.807,44.897 137.033,45.021 137.234 C 45.145 137.435,45.044 137.600,44.795 137.600 C 44.546 137.600,44.376 138.005,44.416 138.500 C 44.564 140.330,44.387 141.557,43.900 142.071 C 43.625 142.362,43.343 143.487,43.272 144.572 C 43.202 145.656,42.887 146.911,42.572 147.361 C 42.258 147.810,42.000 148.672,42.000 149.275 C 42.000 149.878,41.746 151.143,41.435 152.086 C 41.124 153.029,40.768 154.568,40.645 155.506 C 40.522 156.444,40.246 157.541,40.031 157.943 C 39.816 158.344,39.521 159.548,39.376 160.618 C 39.231 161.687,38.870 162.932,38.574 163.384 C 38.277 163.836,38.043 164.565,38.053 165.003 C 38.077 166.106,37.619 168.091,37.226 168.588 C 37.046 168.814,36.774 170.035,36.621 171.300 C 36.468 172.565,36.175 173.600,35.971 173.600 C 35.767 173.600,35.636 173.735,35.679 173.900 C 35.803 174.366,35.152 178.151,34.872 178.600 C 34.735 178.820,34.580 179.180,34.527 179.400 C 33.912 181.977,33.616 182.899,33.269 183.316 C 33.044 183.588,32.777 184.775,32.675 185.953 C 32.574 187.132,32.312 188.210,32.092 188.348 C 31.873 188.487,31.569 189.678,31.416 190.995 C 31.264 192.313,30.990 193.483,30.809 193.595 C 30.627 193.708,30.355 194.790,30.204 196.000 C 30.052 197.210,29.674 198.485,29.363 198.833 C 29.052 199.181,28.821 199.901,28.850 200.433 C 28.923 201.773,28.427 204.136,28.019 204.390 C 27.833 204.505,27.553 205.630,27.396 206.888 C 27.239 208.146,26.884 209.364,26.608 209.594 C 26.331 209.823,26.083 210.954,26.058 212.106 C 26.032 213.262,25.785 214.379,25.506 214.600 C 25.228 214.820,24.944 215.630,24.875 216.400 C 24.684 218.542,24.486 219.538,24.139 220.093 C 23.765 220.692,23.632 221.265,23.378 223.366 C 23.274 224.227,23.028 225.127,22.830 225.366 C 22.633 225.605,22.345 226.475,22.191 227.300 C 22.037 228.125,21.751 228.800,21.555 228.800 C 21.360 228.800,21.236 228.935,21.281 229.100 C 21.355 229.374,21.130 230.796,20.554 233.703 C 20.433 234.310,20.170 234.705,19.967 234.580 C 19.666 234.394,19.361 237.348,19.560 238.521 C 19.590 238.698,19.363 239.094,19.056 239.401 C 18.749 239.709,18.372 240.959,18.220 242.180 C 18.067 243.401,17.716 244.627,17.438 244.904 C 17.161 245.182,16.922 246.363,16.907 247.529 C 16.890 248.801,16.641 249.919,16.284 250.325 C 15.957 250.696,15.574 251.978,15.433 253.172 C 15.293 254.367,15.011 255.546,14.808 255.791 C 14.604 256.036,14.434 256.589,14.431 257.018 C 14.419 258.438,13.896 260.596,13.503 260.849 C 13.290 260.987,13.049 261.954,12.967 262.998 C 12.884 264.043,12.649 265.101,12.444 265.349 C 12.239 265.597,11.965 266.475,11.836 267.300 C 11.706 268.125,11.501 269.435,11.380 270.211 C 11.259 270.987,10.989 271.517,10.780 271.388 C 10.571 271.258,10.400 271.703,10.400 272.376 C 10.400 274.164,10.408 274.129,9.816 275.032 C 9.516 275.489,9.148 276.839,8.998 278.032 C 8.848 279.224,8.493 280.332,8.209 280.494 C 7.894 280.673,7.692 281.577,7.692 282.812 C 7.692 284.063,7.459 285.095,7.081 285.518 C 6.744 285.893,6.425 287.010,6.372 288.000 C 6.319 288.990,6.017 290.223,5.702 290.741 C 5.386 291.258,5.217 292.023,5.326 292.440 C 5.436 292.858,5.373 293.293,5.187 293.408 C 5.001 293.523,4.917 293.971,5.001 294.404 C 5.084 294.837,4.902 295.441,4.595 295.748 C 4.289 296.054,4.150 296.416,4.286 296.552 C 4.422 296.689,4.347 296.800,4.119 296.800 C 3.891 296.800,3.684 297.706,3.659 298.813 C 3.634 299.921,3.448 301.136,3.246 301.513 C 3.044 301.891,2.746 303.100,2.584 304.200 C 2.422 305.300,2.130 306.303,1.935 306.429 C 1.535 306.689,1.235 307.859,0.967 310.200 C 0.866 311.080,0.608 311.860,0.392 311.933 C -0.563 312.258,-0.070 320.063,0.900 319.979 C 2.255 319.860,4.418 320.447,4.161 320.863 C 4.036 321.065,4.534 321.208,5.267 321.181 C 7.123 321.113,8.872 321.541,9.662 322.256 C 10.030 322.589,10.662 322.827,11.066 322.785 C 12.636 322.620,13.965 322.821,14.471 323.300 C 14.762 323.575,15.879 323.857,16.953 323.926 C 18.027 323.995,19.287 324.293,19.753 324.588 C 20.219 324.883,21.050 325.127,21.600 325.129 C 22.150 325.131,23.748 325.508,25.152 325.967 C 26.556 326.425,28.292 326.800,29.009 326.800 C 29.761 326.800,30.406 327.038,30.530 327.361 C 30.675 327.740,31.419 327.928,32.816 327.939 C 34.083 327.949,35.147 328.190,35.555 328.559 C 35.922 328.892,36.578 329.166,37.011 329.170 C 39.048 329.185,40.345 329.456,41.004 330.003 C 41.399 330.331,41.786 330.549,41.863 330.486 C 42.199 330.215,46.000 330.939,46.000 331.275 C 46.000 331.480,46.180 331.536,46.400 331.400 C 46.620 331.264,46.800 331.298,46.800 331.476 C 46.800 331.654,47.472 331.837,48.292 331.882 C 49.113 331.927,49.968 332.197,50.192 332.482 C 50.416 332.767,51.478 333.039,52.551 333.088 C 53.624 333.136,54.887 333.427,55.357 333.735 C 55.826 334.043,57.191 334.414,58.389 334.560 C 59.588 334.706,60.665 334.982,60.784 335.173 C 60.903 335.365,61.990 335.646,63.200 335.798 C 64.410 335.950,65.580 336.221,65.800 336.400 C 66.020 336.579,67.100 336.847,68.200 336.996 C 70.952 337.369,71.650 337.596,71.382 338.029 C 71.256 338.233,71.883 338.423,72.776 338.450 C 73.669 338.478,74.760 338.545,75.200 338.600 C 75.640 338.655,76.191 338.723,76.424 338.750 C 76.657 338.778,76.750 338.957,76.631 339.149 C 76.513 339.341,77.535 339.625,78.904 339.780 C 80.272 339.935,81.643 340.270,81.950 340.525 C 82.553 341.025,82.661 341.048,84.871 341.139 C 85.681 341.173,86.581 341.425,86.871 341.700 C 87.162 341.975,88.114 342.248,88.988 342.306 C 89.888 342.367,90.720 342.672,90.910 343.011 C 91.094 343.340,91.730 343.591,92.322 343.570 C 93.637 343.521,95.628 343.933,96.188 344.369 C 96.414 344.545,97.576 344.800,98.770 344.934 C 99.963 345.069,101.063 345.379,101.215 345.624 C 101.366 345.868,101.559 346.035,101.645 345.995 C 102.148 345.756,105.905 346.590,106.443 347.060 C 106.797 347.369,107.607 347.610,108.243 347.597 C 109.905 347.562,110.884 347.750,111.831 348.285 C 112.668 348.758,114.264 349.106,115.871 349.167 C 116.351 349.185,116.989 349.446,117.289 349.746 C 117.601 350.058,118.767 350.313,120.017 350.340 C 121.243 350.368,122.375 350.610,122.600 350.894 C 122.820 351.172,123.630 351.451,124.400 351.513 C 126.216 351.659,126.764 351.781,128.123 352.338 C 128.741 352.591,130.001 352.913,130.923 353.054 C 131.846 353.194,132.791 353.459,133.025 353.642 C 133.259 353.824,134.155 354.061,135.017 354.168 C 135.878 354.275,136.767 354.596,136.992 354.881 C 137.216 355.167,137.805 355.413,138.300 355.429 C 140.886 355.511,141.594 355.651,142.132 356.189 C 142.456 356.513,143.324 356.770,144.061 356.760 C 145.778 356.736,147.277 357.077,147.575 357.560 C 147.704 357.768,148.887 358.063,150.205 358.215 C 151.522 358.366,152.734 358.722,152.898 359.005 C 153.081 359.323,153.960 359.510,155.193 359.494 C 156.482 359.477,157.441 359.693,157.896 360.101 C 158.295 360.459,159.467 360.776,160.600 360.832 C 161.700 360.887,162.871 361.161,163.203 361.440 C 163.534 361.719,164.780 362.043,165.970 362.160 C 167.161 362.276,168.247 362.552,168.383 362.772 C 168.519 362.993,169.704 363.291,171.015 363.434 C 172.327 363.578,173.580 363.899,173.800 364.147 C 174.204 364.605,174.593 364.684,177.287 364.858 C 178.129 364.913,178.868 365.201,178.992 365.523 C 179.122 365.861,179.531 366.007,180.004 365.883 C 180.442 365.769,180.908 365.850,181.040 366.065 C 181.173 366.279,181.520 366.363,181.811 366.251 C 182.103 366.139,182.536 366.282,182.774 366.568 C 183.011 366.854,184.213 367.193,185.444 367.320 C 186.675 367.447,187.979 367.807,188.341 368.120 C 188.717 368.444,189.904 368.703,191.102 368.722 C 193.346 368.757,194.153 369.029,193.784 369.626 C 193.657 369.831,194.232 369.971,195.078 369.940 C 197.075 369.867,199.267 370.368,198.980 370.833 C 198.855 371.035,199.348 371.215,200.076 371.233 C 202.226 371.286,203.756 371.619,204.398 372.172 C 204.729 372.458,205.900 372.717,207.000 372.749 C 208.100 372.781,209.180 373.030,209.400 373.303 C 209.620 373.576,210.700 373.857,211.800 373.926 C 212.900 373.995,214.210 374.318,214.711 374.643 C 215.213 374.967,215.785 375.133,215.984 375.010 C 216.182 374.887,216.435 374.932,216.544 375.110 C 216.654 375.287,217.426 375.479,218.260 375.535 C 219.093 375.591,219.881 375.808,220.010 376.017 C 220.139 376.225,221.315 376.511,222.622 376.651 C 223.930 376.792,225.124 377.099,225.274 377.335 C 225.425 377.571,226.145 377.832,226.874 377.914 C 227.604 377.996,228.472 378.308,228.805 378.608 C 229.138 378.907,230.398 379.193,231.605 379.244 C 232.812 379.294,233.918 379.513,234.061 379.729 C 234.205 379.945,235.465 380.276,236.861 380.465 C 238.258 380.654,239.581 381.051,239.802 381.347 C 240.040 381.666,240.975 381.886,242.092 381.886 C 243.131 381.886,244.210 382.067,244.490 382.290 C 244.771 382.512,245.989 382.820,247.198 382.974 C 248.407 383.128,249.667 383.491,249.998 383.781 C 250.329 384.070,251.557 384.406,252.726 384.526 C 253.895 384.647,255.065 384.915,255.326 385.122 C 255.587 385.329,256.700 385.622,257.800 385.772 C 258.900 385.922,260.340 386.289,261.000 386.588 C 261.660 386.887,262.920 387.186,263.800 387.254 C 264.680 387.322,265.580 387.595,265.800 387.861 C 266.020 388.128,266.920 388.391,267.800 388.446 C 268.680 388.502,269.670 388.768,270.000 389.038 C 270.330 389.308,271.590 389.652,272.800 389.802 C 274.010 389.952,275.131 390.304,275.290 390.585 C 275.470 390.899,276.448 391.102,277.847 391.115 C 279.093 391.126,280.222 391.309,280.356 391.521 C 280.490 391.733,281.348 392.009,282.263 392.136 C 284.878 392.498,286.013 392.856,285.774 393.243 C 285.652 393.439,286.148 393.618,286.876 393.640 C 289.465 393.717,290.482 393.886,290.740 394.280 C 290.883 394.499,292.080 394.800,293.400 394.949 C 294.720 395.097,295.980 395.439,296.200 395.709 C 296.420 395.979,297.576 396.253,298.770 396.319 C 299.982 396.385,301.129 396.676,301.370 396.978 C 301.606 397.276,302.870 397.628,304.178 397.761 C 305.485 397.895,306.657 398.169,306.782 398.371 C 306.907 398.573,308.132 398.866,309.505 399.021 C 310.877 399.176,312.000 399.460,312.000 399.652 C 312.000 399.843,313.530 400.000,315.400 400.000 C 317.551 400.000,318.800 399.843,318.800 399.571 C 318.800 399.336,319.055 398.888,319.367 398.576 C 319.690 398.253,319.933 397.226,319.933 396.185 C 319.933 395.160,320.224 393.918,320.597 393.348 C 320.962 392.791,321.165 392.086,321.048 391.780 C 320.931 391.475,320.968 391.144,321.130 391.043 C 321.292 390.943,321.471 390.266,321.526 389.539 C 321.581 388.812,321.872 388.080,322.172 387.912 C 322.527 387.713,322.727 386.813,322.744 385.336 C 322.759 384.087,322.946 382.957,323.160 382.825 C 323.373 382.693,323.670 381.598,323.820 380.392 C 323.969 379.187,324.326 378.011,324.613 377.780 C 324.899 377.549,325.228 376.320,325.344 375.048 C 325.460 373.777,325.751 372.500,325.991 372.210 C 326.231 371.921,326.536 370.721,326.669 369.542 C 326.801 368.364,327.100 367.159,327.333 366.865 C 327.566 366.570,327.824 365.490,327.907 364.465 C 327.989 363.439,328.278 362.240,328.549 361.800 C 328.820 361.360,329.078 360.474,329.122 359.830 C 329.166 359.187,329.473 358.362,329.802 357.997 C 330.132 357.633,330.397 356.899,330.390 356.367 C 330.365 354.407,330.651 353.050,331.122 352.893 C 331.387 352.804,331.503 352.567,331.379 352.366 C 331.255 352.165,331.326 352.000,331.538 352.000 C 331.750 352.000,331.930 351.072,331.939 349.937 C 331.948 348.803,332.100 347.768,332.278 347.637 C 332.645 347.367,332.727 347.042,333.081 344.465 C 333.221 343.443,333.575 342.368,333.868 342.075 C 334.160 341.782,334.400 340.920,334.400 340.159 C 334.400 339.397,334.662 338.148,334.981 337.383 C 335.301 336.618,335.673 335.229,335.808 334.296 C 335.943 333.363,336.311 331.829,336.627 330.886 C 336.942 329.943,337.200 328.806,337.200 328.360 C 337.200 327.913,337.410 327.156,337.666 326.677 C 338.131 325.809,338.319 324.926,338.551 322.526 C 338.618 321.825,338.944 320.835,339.273 320.326 C 339.603 319.817,339.897 318.699,339.926 317.843 C 339.956 316.986,340.255 315.981,340.591 315.610 C 340.927 315.239,341.093 314.827,340.961 314.694 C 340.671 314.404,341.549 311.601,341.931 311.597 C 342.079 311.596,342.246 310.663,342.302 309.525 C 342.357 308.386,342.672 307.044,343.002 306.541 C 343.331 306.039,343.600 305.076,343.600 304.401 C 343.600 303.726,343.872 302.524,344.203 301.730 C 344.535 300.936,344.900 299.374,345.014 298.260 C 345.128 297.145,345.377 296.136,345.566 296.017 C 345.756 295.898,346.031 294.900,346.178 293.800 C 346.325 292.700,346.715 291.386,347.044 290.881 C 347.374 290.375,347.599 289.655,347.543 289.281 C 347.392 288.254,347.989 285.600,348.372 285.600 C 348.556 285.600,348.832 284.430,348.985 283.000 C 349.138 281.570,349.399 280.400,349.565 280.400 C 349.731 280.400,349.884 280.175,349.904 279.900 C 350.085 277.492,350.593 275.345,351.043 275.083 C 351.343 274.909,351.570 274.369,351.548 273.883 C 351.486 272.558,352.025 269.863,352.455 269.339 C 352.664 269.085,352.899 268.206,352.979 267.386 C 353.058 266.566,353.298 265.783,353.511 265.647 C 353.725 265.511,354.018 264.417,354.162 263.216 C 354.307 262.015,354.578 260.935,354.764 260.816 C 354.951 260.697,355.228 259.610,355.381 258.400 C 355.746 255.499,355.981 254.741,356.427 255.017 C 356.630 255.142,356.784 254.560,356.768 253.722 C 356.736 251.937,357.022 250.502,357.539 249.859 C 357.742 249.607,358.024 248.418,358.166 247.218 C 358.308 246.018,358.665 244.758,358.958 244.418 C 359.251 244.078,359.518 242.911,359.552 241.825 C 359.585 240.738,359.866 239.568,360.176 239.225 C 360.487 238.881,360.820 237.677,360.916 236.549 C 361.013 235.421,361.246 234.251,361.435 233.949 C 361.835 233.308,361.965 232.761,362.221 230.641 C 362.325 229.783,362.705 228.865,363.066 228.601 C 363.427 228.337,363.603 227.929,363.458 227.694 C 363.313 227.459,363.405 226.757,363.664 226.134 C 363.922 225.510,364.164 224.910,364.203 224.800 C 364.241 224.690,364.414 223.658,364.587 222.507 C 364.760 221.356,365.148 220.209,365.451 219.958 C 365.753 219.707,366.000 218.808,366.000 217.959 C 366.000 217.111,366.259 215.738,366.575 214.908 C 366.892 214.079,367.240 212.680,367.350 211.800 C 367.586 209.902,367.969 208.800,368.393 208.800 C 368.562 208.800,368.700 207.790,368.700 206.555 C 368.700 205.133,368.893 204.190,369.225 203.985 C 369.514 203.806,369.797 203.152,369.855 202.530 C 370.011 200.866,370.393 199.163,370.773 198.438 C 370.957 198.087,371.236 196.855,371.391 195.700 C 371.547 194.545,371.849 193.600,372.061 193.600 C 372.273 193.600,372.336 193.420,372.200 193.200 C 372.064 192.980,372.143 192.800,372.376 192.800 C 372.616 192.800,372.800 191.961,372.800 190.867 C 372.800 189.803,372.925 188.808,373.078 188.655 C 373.402 188.331,373.536 187.779,374.004 184.840 C 374.193 183.652,374.494 182.572,374.674 182.440 C 375.003 182.198,375.125 181.822,375.464 180.009 C 375.565 179.463,375.797 178.923,375.978 178.809 C 376.158 178.694,376.431 177.520,376.584 176.200 C 376.737 174.877,377.101 173.665,377.394 173.500 C 377.721 173.317,377.917 172.513,377.901 171.426 C 377.886 170.433,378.155 169.223,378.512 168.679 C 378.863 168.143,379.148 167.187,379.147 166.553 C 379.144 165.055,379.472 163.637,379.955 163.054 C 380.167 162.799,380.422 161.640,380.522 160.480 C 380.621 159.320,380.970 158.062,381.297 157.685 C 381.629 157.302,381.917 156.117,381.949 155.000 C 381.981 153.900,382.230 152.820,382.503 152.600 C 382.776 152.380,383.045 151.334,383.100 150.275 C 383.154 149.216,383.416 147.956,383.680 147.475 C 384.219 146.496,384.361 145.973,384.594 144.115 C 384.683 143.409,384.935 142.495,385.155 142.084 C 385.374 141.674,385.680 140.362,385.835 139.169 C 385.989 137.976,386.359 136.645,386.658 136.211 C 386.956 135.777,387.200 135.027,387.200 134.544 C 387.200 133.313,387.617 132.363,388.042 132.626 C 388.239 132.748,388.421 131.982,388.446 130.924 C 388.472 129.866,388.534 128.820,388.585 128.600 C 388.636 128.380,388.706 127.964,388.739 127.676 C 388.773 127.388,388.980 127.264,389.200 127.400 C 389.428 127.541,389.614 127.164,389.633 126.524 C 389.686 124.712,390.012 123.122,390.514 122.231 C 390.771 121.774,391.021 120.504,391.070 119.410 C 391.119 118.315,391.393 117.235,391.680 117.010 C 391.966 116.784,392.252 115.803,392.315 114.828 C 392.379 113.854,392.677 112.504,392.978 111.828 C 393.279 111.153,393.539 110.330,393.556 110.000 C 393.624 108.669,394.130 106.587,394.433 106.390 C 394.610 106.275,394.869 105.105,395.010 103.790 C 395.150 102.476,395.424 101.342,395.620 101.271 C 395.815 101.200,396.070 100.525,396.187 99.771 C 396.304 99.017,396.499 97.765,396.620 96.989 C 396.741 96.213,397.006 95.680,397.209 95.805 C 397.411 95.931,397.556 95.441,397.531 94.716 C 397.472 93.028,397.989 90.671,398.487 90.354 C 398.700 90.218,398.966 89.408,399.079 88.554 C 399.191 87.699,399.445 86.940,399.642 86.867 C 399.839 86.793,400.000 85.677,400.000 84.385 C 400.000 81.331,399.035 80.241,396.216 80.112 C 395.161 80.064,393.880 79.751,393.369 79.416 C 392.858 79.082,391.604 78.776,390.582 78.738 C 389.561 78.699,388.496 78.439,388.217 78.160 C 387.937 77.880,386.649 77.530,385.354 77.381 C 384.059 77.232,382.866 76.878,382.702 76.595 C 382.519 76.277,381.640 76.090,380.407 76.106 C 379.118 76.123,378.159 75.907,377.704 75.499 C 377.307 75.143,376.127 74.822,375.000 74.764 C 372.617 74.640,371.928 74.440,372.226 73.958 C 372.348 73.761,371.942 73.584,371.324 73.565 C 368.895 73.490,367.468 73.234,367.218 72.828 C 367.073 72.595,365.885 72.295,364.578 72.161 C 363.270 72.028,362.020 71.712,361.800 71.459 C 361.580 71.207,360.695 70.937,359.832 70.861 C 358.970 70.785,358.027 70.485,357.737 70.194 C 357.447 69.904,356.383 69.667,355.373 69.667 C 354.343 69.667,353.243 69.412,352.868 69.087 C 352.501 68.768,351.230 68.399,350.045 68.266 C 348.860 68.133,347.570 67.735,347.179 67.381 C 346.788 67.028,346.138 66.773,345.734 66.815 C 343.659 67.033,342.000 66.770,342.000 66.223 C 342.000 65.794,341.480 65.650,339.974 65.662 C 338.709 65.671,337.695 65.450,337.274 65.071 C 336.903 64.738,335.523 64.368,334.207 64.250 C 332.835 64.126,331.639 63.794,331.403 63.471 C 331.145 63.119,330.172 62.891,328.796 62.860 C 327.559 62.832,326.425 62.590,326.200 62.306 C 325.980 62.028,324.900 61.740,323.800 61.667 C 322.700 61.593,321.390 61.271,320.889 60.950 C 320.387 60.629,319.815 60.467,319.616 60.590 C 319.418 60.713,319.165 60.668,319.056 60.490 C 318.946 60.313,318.174 60.121,317.340 60.065 C 316.507 60.009,315.724 59.800,315.600 59.600 C 315.477 59.401,314.616 59.116,313.688 58.968 C 312.760 58.819,312.000 58.530,312.000 58.325 C 312.000 58.120,311.820 58.064,311.600 58.200 C 311.380 58.336,311.200 58.274,311.200 58.062 C 311.200 57.850,310.282 57.670,309.161 57.661 C 307.839 57.651,306.959 57.435,306.661 57.048 C 306.380 56.684,305.418 56.417,304.200 56.366 C 303.100 56.320,301.840 56.066,301.400 55.801 C 300.960 55.537,299.738 55.225,298.684 55.108 C 297.630 54.991,296.460 54.624,296.084 54.294 C 295.677 53.938,294.633 53.698,293.510 53.704 C 292.470 53.710,291.390 53.525,291.110 53.295 C 290.829 53.064,289.700 52.749,288.600 52.594 C 287.500 52.440,286.240 52.088,285.800 51.813 C 285.359 51.537,284.043 51.209,282.874 51.083 C 281.705 50.958,280.507 50.655,280.213 50.411 C 279.918 50.166,278.718 49.872,277.546 49.758 C 276.374 49.643,275.306 49.372,275.172 49.155 C 275.038 48.938,274.135 48.696,273.164 48.616 C 270.799 48.421,270.275 48.283,269.801 47.734 C 269.581 47.478,268.637 47.187,267.705 47.087 C 266.773 46.988,265.777 46.713,265.492 46.476 C 265.206 46.239,264.122 46.002,263.081 45.948 C 261.918 45.888,260.953 45.590,260.580 45.177 C 260.153 44.706,259.302 44.499,257.729 44.485 C 256.496 44.474,255.378 44.291,255.244 44.079 C 255.110 43.867,254.252 43.591,253.337 43.464 C 250.722 43.102,249.587 42.744,249.826 42.357 C 249.948 42.161,249.452 41.985,248.724 41.967 C 246.774 41.919,245.044 41.592,244.807 41.228 C 244.693 41.052,243.520 40.776,242.200 40.614 C 240.880 40.451,239.688 40.138,239.550 39.917 C 239.413 39.696,238.362 39.442,237.214 39.352 C 236.067 39.263,234.739 38.970,234.264 38.702 C 233.789 38.434,233.118 38.193,232.772 38.166 C 231.554 38.070,229.001 37.524,228.603 37.275 C 228.140 36.985,227.623 36.864,225.400 36.526 C 224.520 36.392,223.677 36.077,223.527 35.825 C 223.377 35.573,222.572 35.321,221.739 35.265 C 220.906 35.209,220.109 34.976,219.967 34.747 C 219.826 34.519,219.593 34.362,219.450 34.400 C 219.306 34.438,218.426 34.329,217.494 34.159 C 216.562 33.989,215.636 33.893,215.437 33.946 C 215.237 33.999,214.939 33.825,214.775 33.560 C 214.612 33.295,213.352 32.924,211.976 32.736 C 210.600 32.548,209.278 32.233,209.037 32.036 C 208.797 31.838,207.551 31.547,206.268 31.388 C 204.986 31.230,203.858 30.897,203.761 30.650 C 203.665 30.402,202.818 30.180,201.879 30.155 C 200.941 30.130,199.639 29.834,198.986 29.497 C 198.334 29.160,196.829 28.789,195.642 28.672 C 194.455 28.555,193.375 28.284,193.242 28.070 C 193.109 27.856,191.970 27.553,190.712 27.396 C 189.454 27.239,188.220 26.865,187.970 26.564 C 187.638 26.164,187.312 26.126,186.758 26.422 C 186.241 26.699,186.000 26.697,186.000 26.414 C 186.000 26.186,185.364 26.000,184.587 26.000 C 183.701 26.000,183.089 25.777,182.945 25.400 C 182.790 24.996,182.156 24.800,181.006 24.800 C 179.976 24.800,179.100 24.562,178.800 24.200 C 178.526 23.870,177.688 23.600,176.938 23.600 C 176.188 23.600,174.970 23.347,174.231 23.039 C 173.493 22.730,172.019 22.360,170.957 22.216 C 169.895 22.072,168.841 21.803,168.613 21.619 C 168.386 21.434,167.320 21.166,166.244 21.023 C 165.168 20.880,163.782 20.501,163.163 20.181 C 162.545 19.862,161.324 19.600,160.448 19.600 C 159.573 19.600,158.609 19.352,158.305 19.048 C 158.002 18.745,156.639 18.367,155.277 18.209 C 153.915 18.051,152.800 17.749,152.800 17.537 C 152.800 17.326,152.620 17.264,152.400 17.400 C 152.180 17.536,152.000 17.457,152.000 17.224 C 152.000 16.980,151.124 16.800,149.944 16.800 C 148.659 16.800,147.722 16.590,147.444 16.240 C 147.200 15.931,146.061 15.586,144.913 15.471 C 143.765 15.357,142.641 15.149,142.415 15.009 C 141.934 14.712,140.618 14.393,139.195 14.230 C 137.744 14.063,136.400 13.593,136.400 13.252 C 136.400 13.091,135.765 12.941,134.988 12.919 C 134.212 12.897,133.357 12.701,133.088 12.484 C 132.820 12.267,131.610 11.960,130.400 11.802 C 129.190 11.643,127.930 11.284,127.600 11.003 C 127.270 10.722,126.043 10.394,124.874 10.274 C 123.705 10.153,122.535 9.880,122.274 9.666 C 122.013 9.452,120.770 9.150,119.512 8.994 C 118.254 8.838,117.031 8.478,116.795 8.194 C 116.551 7.900,115.490 7.670,114.339 7.661 C 113.148 7.652,112.042 7.404,111.656 7.061 C 111.295 6.739,110.046 6.384,108.881 6.271 C 107.716 6.159,106.503 5.851,106.186 5.589 C 105.869 5.326,105.344 5.213,105.018 5.338 C 104.692 5.463,104.344 5.432,104.243 5.270 C 104.143 5.108,103.478 4.930,102.766 4.876 C 102.054 4.822,101.250 4.474,100.979 4.104 C 100.563 3.535,100.387 3.513,99.843 3.964 C 99.418 4.317,99.200 4.346,99.200 4.049 C 99.200 3.802,98.681 3.600,98.046 3.600 C 97.411 3.600,96.376 3.331,95.746 3.002 C 95.116 2.674,93.829 2.404,92.887 2.402 C 91.727 2.401,91.100 2.204,90.942 1.793 C 90.814 1.459,90.504 1.225,90.254 1.273 C 89.403 1.437,86.800 0.765,86.800 0.382 C 86.800 -0.396,80.403 -0.079,80.370 0.700 M180.167 163.947 C 180.285 164.138,181.331 164.419,182.491 164.571 C 183.651 164.723,184.960 165.082,185.400 165.368 C 185.841 165.654,187.174 165.993,188.362 166.120 C 189.551 166.248,190.631 166.516,190.762 166.716 C 190.893 166.915,192.080 167.202,193.400 167.353 C 194.720 167.504,195.860 167.803,195.934 168.016 C 196.008 168.230,196.233 168.303,196.434 168.179 C 196.635 168.055,196.800 168.126,196.800 168.338 C 196.800 168.550,197.718 168.730,198.839 168.739 C 200.132 168.749,201.048 168.968,201.339 169.337 C 201.605 169.673,202.780 170.006,204.114 170.123 C 205.387 170.234,206.647 170.504,206.914 170.721 C 207.181 170.939,208.298 171.236,209.395 171.382 C 210.493 171.529,211.663 171.888,211.995 172.180 C 212.328 172.472,213.420 172.724,214.423 172.740 C 215.426 172.755,216.776 173.044,217.423 173.381 C 218.070 173.719,219.329 173.996,220.220 173.998 C 221.111 173.999,222.043 174.203,222.292 174.452 C 222.540 174.700,223.186 174.952,223.727 175.012 C 224.267 175.071,225.315 175.404,226.055 175.752 C 226.795 176.099,228.280 176.472,229.356 176.580 C 230.431 176.688,231.601 177.033,231.956 177.347 C 232.310 177.661,233.364 177.924,234.298 177.933 C 236.690 177.956,237.547 179.435,235.782 180.494 C 235.500 180.664,235.292 181.638,235.292 182.797 C 235.292 183.903,235.112 185.030,234.892 185.303 C 234.672 185.577,234.376 186.782,234.234 187.982 C 234.092 189.182,233.688 190.481,233.338 190.869 C 232.982 191.262,232.794 191.933,232.912 192.386 C 233.029 192.833,232.978 193.290,232.798 193.401 C 232.618 193.512,232.525 193.917,232.591 194.302 C 232.657 194.686,232.478 195.374,232.191 195.832 C 231.905 196.289,231.547 197.639,231.396 198.832 C 231.245 200.024,230.976 201.270,230.800 201.600 C 230.623 201.930,230.352 203.049,230.196 204.087 C 230.040 205.125,229.663 206.182,229.357 206.436 C 229.035 206.703,228.800 207.644,228.800 208.669 C 228.800 209.643,228.530 210.961,228.201 211.599 C 227.549 212.858,227.276 214.005,227.230 215.671 C 227.213 216.261,226.945 216.998,226.634 217.309 C 226.323 217.620,226.081 218.128,226.097 218.437 C 226.192 220.274,225.934 222.012,225.500 222.471 C 225.225 222.762,224.991 223.180,224.979 223.400 C 224.908 224.761,224.254 226.757,223.941 226.564 C 223.737 226.438,223.592 226.934,223.619 227.667 C 223.680 229.333,223.265 231.313,222.794 231.604 C 222.598 231.725,222.404 232.539,222.364 233.412 C 222.242 236.087,221.994 236.708,220.967 236.904 C 220.435 237.006,220.000 236.979,219.999 236.845 C 219.999 236.710,219.434 236.560,218.744 236.512 C 218.054 236.463,217.199 236.168,216.844 235.856 C 216.486 235.540,215.316 235.274,214.204 235.257 C 213.093 235.239,212.029 234.998,211.804 234.713 C 211.582 234.431,210.950 234.181,210.400 234.158 C 208.849 234.093,206.679 233.597,206.198 233.198 C 205.959 233.000,205.411 232.852,204.982 232.870 C 203.765 232.919,201.485 232.402,200.944 231.954 C 200.675 231.730,199.453 231.444,198.228 231.318 C 197.002 231.192,196.000 230.946,196.000 230.773 C 196.000 230.599,194.965 230.333,193.700 230.181 C 192.435 230.029,191.125 229.664,190.789 229.370 C 190.452 229.077,189.822 228.834,189.389 228.830 C 187.358 228.815,185.939 228.548,185.682 228.134 C 185.527 227.884,184.754 227.578,183.966 227.453 C 182.132 227.162,181.200 226.802,181.200 226.384 C 181.200 226.202,180.215 226.073,179.010 226.098 C 177.504 226.128,176.597 225.940,176.105 225.495 C 175.712 225.139,174.852 224.850,174.195 224.852 C 172.590 224.857,171.236 224.528,170.564 223.970 C 170.260 223.717,169.755 223.608,169.444 223.728 C 169.133 223.847,168.765 223.832,168.628 223.694 C 168.490 223.557,167.815 223.401,167.129 223.349 C 166.442 223.296,165.772 223.079,165.640 222.867 C 165.508 222.654,164.952 222.418,164.405 222.340 C 163.285 222.182,163.039 217.851,164.101 217.000 C 164.375 216.780,164.639 215.722,164.688 214.649 C 164.736 213.576,165.041 212.291,165.367 211.795 C 165.692 211.299,166.051 209.941,166.165 208.779 C 166.279 207.616,166.544 206.558,166.755 206.428 C 166.966 206.297,167.263 205.113,167.415 203.795 C 167.566 202.478,167.916 201.269,168.192 201.110 C 168.495 200.935,168.702 199.946,168.714 198.625 C 168.735 196.302,169.016 195.439,169.628 195.817 C 169.837 195.946,170.022 195.159,170.050 194.024 C 170.078 192.911,170.145 191.820,170.200 191.600 C 170.255 191.380,170.322 191.009,170.350 190.776 C 170.378 190.543,170.569 190.457,170.776 190.585 C 170.982 190.713,171.137 190.498,171.120 190.109 C 171.059 188.766,171.669 185.799,172.117 185.260 C 172.363 184.962,172.629 183.792,172.708 182.660 C 172.787 181.527,173.065 180.420,173.326 180.200 C 173.587 179.980,173.849 179.179,173.910 178.421 C 173.970 177.662,174.285 176.748,174.611 176.388 C 174.936 176.029,175.197 175.299,175.190 174.767 C 175.168 173.040,175.416 171.704,175.862 171.146 C 176.102 170.846,176.385 169.653,176.491 168.496 C 176.602 167.279,176.981 166.063,177.390 165.611 C 177.779 165.181,177.991 164.553,177.861 164.215 C 177.601 163.537,179.759 163.287,180.167 163.947 " stroke="none" fill="#e2231a" fill-rule="evenodd"></path><path id="path6" d="M109.800 6.293 C 110.460 6.389,111.315 6.750,111.700 7.095 C 112.109 7.463,112.400 7.538,112.400 7.276 C 112.400 6.619,111.019 5.991,109.726 6.060 L 108.600 6.120 109.800 6.293 M74.642 20.235 C 74.291 21.148,74.345 22.000,74.753 22.000 C 75.206 22.000,75.592 20.042,75.188 19.793 C 75.021 19.689,74.775 19.888,74.642 20.235 M167.200 21.093 C 167.750 21.194,168.470 21.484,168.800 21.738 C 169.322 22.140,169.329 22.109,168.851 21.500 C 168.548 21.114,167.830 20.824,167.251 20.854 L 166.200 20.909 167.200 21.093 M178.413 23.420 C 178.388 24.246,179.383 24.799,180.780 24.736 L 182.200 24.672 180.821 24.505 C 180.063 24.413,179.214 24.037,178.934 23.669 C 178.654 23.301,178.420 23.189,178.413 23.420 M217.370 33.952 C 217.664 34.428,219.572 34.769,219.807 34.388 C 219.911 34.221,219.712 33.975,219.365 33.842 C 218.419 33.479,217.122 33.551,217.370 33.952 M227.600 36.867 C 227.600 37.123,227.718 37.215,227.863 37.070 C 228.008 36.925,228.368 37.007,228.663 37.252 C 229.001 37.533,229.200 37.547,229.200 37.292 C 229.200 37.068,228.915 36.776,228.567 36.643 C 227.697 36.309,227.600 36.332,227.600 36.867 M237.006 39.210 C 237.106 39.372,237.635 39.590,238.182 39.694 C 238.729 39.799,239.094 39.752,238.994 39.590 C 238.894 39.428,238.365 39.210,237.818 39.106 C 237.271 39.001,236.906 39.048,237.006 39.210 M250.800 42.953 C 250.800 43.038,251.250 43.193,251.800 43.298 C 252.350 43.403,252.800 43.334,252.800 43.145 C 252.800 42.955,252.350 42.800,251.800 42.800 C 251.250 42.800,250.800 42.869,250.800 42.953 M265.200 45.986 C 265.200 46.198,265.605 46.584,266.100 46.844 C 266.995 47.314,266.996 47.312,266.238 46.458 C 265.391 45.505,265.200 45.418,265.200 45.986 M271.800 48.400 C 272.240 48.589,272.960 48.744,273.400 48.744 L 274.200 48.744 273.400 48.400 C 272.960 48.211,272.240 48.056,271.800 48.056 L 271.000 48.056 271.800 48.400 M288.800 52.555 C 288.800 52.640,289.330 52.787,289.979 52.882 C 290.627 52.977,291.067 52.908,290.955 52.728 C 290.757 52.407,288.800 52.250,288.800 52.555 M65.632 55.539 C 65.395 55.984,65.201 56.584,65.202 56.874 C 65.204 57.163,65.477 56.878,65.810 56.240 C 66.142 55.603,66.336 55.002,66.240 54.906 C 66.143 54.810,65.870 55.095,65.632 55.539 M65.246 58.969 C 65.221 59.391,64.902 60.066,64.538 60.469 C 64.165 60.881,64.071 61.200,64.324 61.200 C 64.946 61.200,65.688 59.700,65.472 58.879 C 65.322 58.311,65.285 58.326,65.246 58.969 M319.004 60.407 C 319.142 60.630,319.418 60.713,319.616 60.590 C 319.815 60.467,320.422 60.658,320.966 61.014 C 321.509 61.370,322.369 61.582,322.877 61.485 C 323.733 61.322,323.724 61.305,322.749 61.254 C 322.171 61.225,321.474 60.930,321.200 60.600 C 320.647 59.934,318.601 59.754,319.004 60.407 M337.714 65.447 C 337.984 65.717,341.183 65.751,341.447 65.486 C 341.562 65.371,340.724 65.270,339.584 65.261 C 338.444 65.252,337.603 65.336,337.714 65.447 M61.246 75.100 C 61.221 75.595,61.020 76.000,60.800 76.000 C 60.580 76.000,60.400 76.219,60.400 76.486 C 60.400 76.803,60.622 76.750,61.038 76.333 C 61.390 75.982,61.590 75.358,61.485 74.947 C 61.325 74.327,61.285 74.352,61.246 75.100 M376.200 74.689 C 376.640 74.798,377.225 75.069,377.500 75.292 C 377.838 75.567,378.000 75.567,378.000 75.292 C 378.000 74.813,377.012 74.381,376.067 74.446 C 375.575 74.481,375.610 74.544,376.200 74.689 M391.198 78.697 C 391.968 78.789,392.805 79.038,393.060 79.249 C 393.735 79.810,396.066 80.430,395.784 79.974 C 395.657 79.768,395.248 79.594,394.876 79.587 C 394.504 79.580,393.851 79.310,393.424 78.987 C 392.996 78.664,392.006 78.429,391.224 78.464 L 389.800 78.528 391.198 78.697 M56.642 92.085 L 55.893 93.400 56.794 92.542 C 57.289 92.070,57.626 91.478,57.542 91.227 C 57.459 90.976,57.053 91.362,56.642 92.085 M397.522 93.149 C 397.429 93.781,397.474 94.636,397.621 95.049 C 397.784 95.509,397.904 95.063,397.929 93.900 C 397.976 91.772,397.778 91.407,397.522 93.149 M55.400 96.000 C 55.002 96.440,54.878 96.800,55.124 96.800 C 55.370 96.800,55.765 96.440,56.000 96.000 C 56.235 95.560,56.360 95.200,56.276 95.200 C 56.192 95.200,55.798 95.560,55.400 96.000 M52.400 107.576 C 52.400 108.249,52.469 108.800,52.553 108.800 C 52.893 108.800,53.069 106.766,52.746 106.567 C 52.556 106.449,52.400 106.903,52.400 107.576 M392.000 115.600 C 392.000 116.040,392.180 116.400,392.400 116.400 C 392.620 116.400,392.800 116.040,392.800 115.600 C 392.800 115.160,392.620 114.800,392.400 114.800 C 392.180 114.800,392.000 115.160,392.000 115.600 M48.154 124.977 C 48.032 125.294,48.003 125.879,48.089 126.277 C 48.187 126.728,48.324 126.512,48.454 125.700 C 48.671 124.338,48.530 123.996,48.154 124.977 M46.230 132.767 C 45.848 133.189,45.595 133.954,45.668 134.467 C 45.779 135.251,45.907 135.129,46.468 133.700 C 47.223 131.777,47.202 131.693,46.230 132.767 M387.392 133.224 C 387.246 133.684,387.233 134.167,387.363 134.297 C 387.494 134.427,387.600 134.248,387.600 133.900 C 387.600 133.552,387.816 133.195,388.080 133.107 C 388.430 132.990,388.438 132.871,388.109 132.667 C 387.847 132.505,387.546 132.739,387.392 133.224 M386.481 136.418 C 386.172 136.913,386.146 137.200,386.409 137.200 C 386.638 137.200,386.932 136.922,387.062 136.583 C 387.422 135.645,387.033 135.534,386.481 136.418 M384.396 145.500 C 384.343 145.775,384.275 146.135,384.244 146.300 C 384.213 146.465,384.045 146.825,383.870 147.100 C 383.687 147.388,383.737 147.600,383.989 147.600 C 384.561 147.600,384.916 146.634,384.680 145.723 C 384.577 145.326,384.449 145.225,384.396 145.500 M39.467 157.867 C 39.320 158.013,39.215 158.598,39.234 159.167 C 39.268 160.181,39.275 160.179,39.621 159.020 C 39.985 157.803,39.931 157.402,39.467 157.867 M39.067 160.667 C 38.920 160.813,38.800 161.338,38.800 161.833 C 38.800 162.328,38.616 162.825,38.390 162.937 C 38.164 163.049,38.205 163.095,38.480 163.040 C 38.755 162.985,39.096 162.369,39.239 161.670 C 39.513 160.333,39.496 160.237,39.067 160.667 M37.606 165.300 C 37.610 166.184,37.723 166.426,37.957 166.056 C 38.272 165.559,38.117 164.000,37.753 164.000 C 37.669 164.000,37.603 164.585,37.606 165.300 M379.208 165.600 C 379.153 165.930,379.142 166.526,379.183 166.924 C 379.225 167.322,379.043 167.907,378.780 168.224 C 378.450 168.622,378.439 168.800,378.743 168.800 C 379.300 168.800,379.723 167.177,379.488 165.941 C 379.389 165.423,379.264 165.270,379.208 165.600 M202.705 170.283 C 203.202 170.379,203.922 170.375,204.305 170.275 C 204.687 170.175,204.280 170.096,203.400 170.101 C 202.520 170.105,202.207 170.187,202.705 170.283 M216.624 173.387 C 217.051 173.710,217.670 173.979,218.000 173.985 C 218.330 173.990,218.084 173.726,217.454 173.398 C 215.995 172.637,215.625 172.632,216.624 173.387 M35.354 174.577 C 35.232 174.894,35.203 175.479,35.289 175.877 C 35.387 176.328,35.524 176.112,35.654 175.300 C 35.871 173.938,35.730 173.596,35.354 174.577 M223.564 175.231 C 223.153 175.491,223.299 175.589,224.100 175.594 C 225.294 175.601,225.510 175.404,224.664 175.080 C 224.369 174.967,223.874 175.035,223.564 175.231 M33.000 182.800 C 32.602 183.240,32.478 183.600,32.724 183.600 C 32.970 183.600,33.365 183.240,33.600 182.800 C 33.835 182.360,33.960 182.000,33.876 182.000 C 33.792 182.000,33.398 182.360,33.000 182.800 M234.480 185.280 C 234.216 185.544,234.027 186.309,234.060 186.980 L 234.120 188.200 234.295 187.000 C 234.392 186.340,234.657 185.575,234.884 185.300 C 235.412 184.662,235.113 184.647,234.480 185.280 M233.787 189.000 C 233.684 189.330,233.512 189.879,233.405 190.221 C 233.297 190.562,233.366 190.745,233.557 190.627 C 233.748 190.509,233.991 189.959,234.097 189.406 C 234.306 188.313,234.090 188.030,233.787 189.000 M29.600 197.000 C 29.600 197.550,29.669 198.000,29.753 198.000 C 29.838 198.000,29.993 197.550,30.098 197.000 C 30.203 196.450,30.134 196.000,29.945 196.000 C 29.755 196.000,29.600 196.450,29.600 197.000 M28.643 199.033 C 28.254 200.046,28.352 202.295,28.757 201.656 C 28.947 201.356,29.013 200.770,28.904 200.354 C 28.795 199.937,28.929 199.327,29.202 198.998 C 29.489 198.652,29.527 198.400,29.292 198.400 C 29.068 198.400,28.776 198.685,28.643 199.033 M230.249 201.415 C 230.112 201.773,230.018 202.546,230.040 203.133 C 230.073 203.991,230.152 203.895,230.446 202.640 C 230.822 201.039,230.695 200.253,230.249 201.415 M369.898 201.300 C 369.795 201.575,369.853 202.160,370.027 202.600 C 370.285 203.251,370.349 203.159,370.372 202.100 C 370.401 200.748,370.220 200.442,369.898 201.300 M165.182 212.034 C 164.547 213.221,164.869 213.297,165.719 212.161 C 166.114 211.632,166.255 211.200,166.033 211.200 C 165.810 211.200,165.427 211.575,165.182 212.034 M23.467 219.867 C 23.320 220.013,23.200 220.583,23.200 221.133 C 23.200 222.138,23.589 222.140,23.741 221.137 C 23.786 220.841,23.963 220.375,24.135 220.100 C 24.459 219.581,23.935 219.398,23.467 219.867 M170.400 223.586 C 170.400 223.798,170.805 224.184,171.300 224.444 C 172.195 224.914,172.196 224.912,171.438 224.058 C 170.591 223.105,170.400 223.018,170.400 223.586 M364.424 223.600 C 364.377 223.930,364.275 224.539,364.197 224.952 C 364.101 225.461,364.187 225.573,364.462 225.298 C 364.685 225.075,364.787 224.467,364.688 223.946 C 364.590 223.426,364.471 223.270,364.424 223.600 M190.546 229.229 C 191.126 229.685,191.915 229.976,192.300 229.876 C 192.943 229.708,192.940 229.689,192.271 229.646 C 191.871 229.621,191.273 229.330,190.943 229.000 C 190.613 228.670,190.151 228.400,189.917 228.400 C 189.684 228.400,189.967 228.773,190.546 229.229 M20.800 229.976 C 20.800 230.649,20.869 231.200,20.953 231.200 C 21.293 231.200,21.469 229.166,21.146 228.967 C 20.956 228.849,20.800 229.303,20.800 229.976 M362.004 232.300 C 361.947 232.575,361.871 232.935,361.836 233.100 C 361.801 233.265,361.533 233.850,361.240 234.400 L 360.709 235.400 361.589 234.554 C 362.172 233.994,362.409 233.385,362.289 232.754 C 362.190 232.229,362.062 232.025,362.004 232.300 M209.000 234.000 C 210.112 234.478,211.200 234.478,211.200 234.000 C 211.200 233.780,210.525 233.613,209.700 233.628 C 208.497 233.651,208.358 233.724,209.000 234.000 M19.309 236.400 C 19.309 237.390,19.387 237.795,19.482 237.300 C 19.578 236.805,19.578 235.995,19.482 235.500 C 19.387 235.005,19.309 235.410,19.309 236.400 M360.800 238.151 C 360.800 238.454,360.530 238.926,360.200 239.200 C 359.870 239.474,359.600 239.883,359.600 240.110 C 359.600 240.337,359.960 240.107,360.400 239.600 C 361.134 238.754,361.480 237.600,361.000 237.600 C 360.890 237.600,360.800 237.848,360.800 238.151 M356.719 252.300 C 356.624 252.685,356.675 253.450,356.833 254.000 C 357.067 254.815,357.128 254.685,357.160 253.300 C 357.202 251.526,357.016 251.105,356.719 252.300 M352.538 269.013 C 352.279 269.565,352.241 270.000,352.450 270.000 C 352.895 270.000,353.334 268.995,353.138 268.426 C 353.062 268.206,352.792 268.470,352.538 269.013 M10.150 271.387 C 10.026 271.710,10.017 272.205,10.131 272.487 C 10.244 272.769,10.351 272.584,10.368 272.076 C 10.386 271.568,10.580 271.264,10.800 271.400 C 11.020 271.536,11.200 271.457,11.200 271.224 C 11.200 270.590,10.408 270.713,10.150 271.387 M6.160 286.219 C 6.019 286.779,6.016 287.349,6.152 287.485 C 6.288 287.622,6.400 287.379,6.400 286.947 C 6.400 286.514,6.616 285.944,6.880 285.680 C 7.245 285.315,7.247 285.200,6.888 285.200 C 6.628 285.200,6.300 285.658,6.160 286.219 M347.618 287.600 C 347.557 288.150,347.542 288.926,347.583 289.324 C 347.625 289.722,347.443 290.307,347.180 290.624 C 346.850 291.022,346.839 291.200,347.143 291.200 C 347.734 291.200,348.097 289.626,347.893 287.955 C 347.761 286.873,347.706 286.801,347.618 287.600 M2.814 301.174 C 2.586 301.599,2.418 302.454,2.441 303.074 L 2.482 304.200 2.791 303.000 C 2.962 302.340,3.233 301.485,3.393 301.100 C 3.790 300.150,3.330 300.209,2.814 301.174 M342.000 310.600 C 342.000 310.930,342.180 311.200,342.400 311.200 C 342.620 311.200,342.800 310.930,342.800 310.600 C 342.800 310.270,342.620 310.000,342.400 310.000 C 342.180 310.000,342.000 310.270,342.000 310.600 M338.831 321.092 C 338.334 322.182,338.335 322.183,339.167 321.430 C 340.026 320.652,340.253 320.000,339.664 320.000 C 339.480 320.000,339.104 320.492,338.831 321.092 M34.172 328.290 C 34.596 328.398,35.194 328.737,35.500 329.043 C 35.807 329.349,36.249 329.600,36.483 329.600 C 36.716 329.600,36.450 329.240,35.891 328.800 C 35.331 328.360,34.542 328.021,34.137 328.046 C 33.456 328.089,33.459 328.108,34.172 328.290 M336.854 330.067 C 336.825 330.434,336.684 331.064,336.541 331.467 C 336.341 332.033,336.395 332.096,336.775 331.746 C 337.046 331.497,337.187 330.867,337.088 330.346 C 336.990 329.826,336.884 329.700,336.854 330.067 M41.600 330.455 C 41.600 330.645,42.050 330.800,42.600 330.800 C 43.150 330.800,43.600 330.731,43.600 330.647 C 43.600 330.562,43.150 330.407,42.600 330.302 C 42.050 330.197,41.600 330.266,41.600 330.455 M54.856 333.966 C 55.375 334.387,55.890 334.642,55.999 334.533 C 56.234 334.300,54.815 333.200,54.279 333.200 C 54.077 333.200,54.336 333.545,54.856 333.966 M70.100 337.476 C 70.485 337.576,70.800 337.836,70.800 338.053 C 70.800 338.270,70.999 338.324,71.243 338.174 C 71.782 337.840,70.907 337.192,70.000 337.253 C 69.575 337.281,69.604 337.346,70.100 337.476 M332.700 346.210 C 332.594 346.765,332.663 347.315,332.854 347.433 C 333.044 347.551,333.200 347.097,333.200 346.424 C 333.200 344.939,332.963 344.837,332.700 346.210 M101.021 346.035 C 101.146 346.236,101.807 346.400,102.490 346.400 C 104.026 346.400,103.835 346.143,102.098 345.872 C 101.362 345.757,100.894 345.828,101.021 346.035 M108.000 347.623 C 107.163 347.864,107.245 347.908,108.500 347.891 C 109.325 347.880,110.000 347.829,110.000 347.778 C 110.000 347.467,108.849 347.378,108.000 347.623 M123.200 351.600 C 123.200 351.820,123.470 352.000,123.800 352.000 C 124.130 352.000,124.400 351.820,124.400 351.600 C 124.400 351.380,124.130 351.200,123.800 351.200 C 123.470 351.200,123.200 351.380,123.200 351.600 M128.000 352.792 C 128.000 353.017,128.570 353.200,129.267 353.200 C 130.723 353.200,130.670 353.025,129.100 352.649 C 128.447 352.492,128.000 352.550,128.000 352.792 M140.600 355.889 C 141.040 355.998,141.625 356.269,141.900 356.492 C 142.238 356.767,142.400 356.767,142.400 356.492 C 142.400 356.013,141.412 355.581,140.467 355.646 C 139.975 355.681,140.010 355.744,140.600 355.889 M157.600 360.312 C 157.600 360.834,159.491 361.442,159.885 361.048 C 160.022 360.912,159.779 360.800,159.347 360.800 C 158.914 360.800,158.344 360.584,158.080 360.320 C 157.715 359.955,157.600 359.953,157.600 360.312 M328.623 361.689 C 328.280 362.178,328.021 362.943,328.046 363.389 C 328.091 364.172,328.100 364.173,328.292 363.417 C 328.401 362.986,328.761 362.221,329.091 361.717 C 329.863 360.538,329.446 360.514,328.623 361.689 M179.800 366.000 C 179.096 366.302,179.135 366.347,180.124 366.372 C 180.776 366.388,181.144 366.232,181.000 366.000 C 180.864 365.780,180.718 365.613,180.676 365.628 C 180.634 365.644,180.240 365.811,179.800 366.000 M194.795 370.043 C 194.076 370.244,194.382 370.331,195.900 370.360 C 197.055 370.382,198.000 370.330,198.000 370.245 C 198.000 369.921,195.745 369.779,194.795 370.043 M210.800 374.000 C 211.350 374.176,212.250 374.317,212.800 374.313 C 213.698 374.306,213.678 374.274,212.600 374.000 C 210.908 373.569,209.456 373.569,210.800 374.000 M214.400 375.000 C 214.937 375.647,217.002 375.851,216.611 375.217 C 216.481 375.007,216.128 374.929,215.828 375.045 C 215.527 375.160,215.162 375.062,215.017 374.827 C 214.872 374.592,214.561 374.400,214.327 374.400 C 214.059 374.400,214.086 374.622,214.400 375.000 M244.631 382.850 C 244.721 382.996,245.501 383.183,246.364 383.265 C 247.227 383.347,247.859 383.295,247.769 383.150 C 247.679 383.004,246.899 382.817,246.036 382.735 C 245.173 382.653,244.541 382.705,244.631 382.850 M320.389 393.621 C 320.147 394.072,320.027 394.837,320.120 395.321 C 320.281 396.147,320.294 396.142,320.346 395.231 C 320.375 394.699,320.698 393.934,321.062 393.531 C 321.435 393.119,321.529 392.800,321.276 392.800 C 321.030 392.800,320.631 393.169,320.389 393.621 " stroke="none" fill="#e71808" fill-rule="evenodd"></path><path id="path7" d="M172.100 21.876 C 172.485 21.976,173.115 21.976,173.500 21.876 C 173.885 21.775,173.570 21.693,172.800 21.693 C 172.030 21.693,171.715 21.775,172.100 21.876 M71.693 31.200 C 71.693 31.970,71.775 32.285,71.876 31.900 C 71.976 31.515,71.976 30.885,71.876 30.500 C 71.775 30.115,71.693 30.430,71.693 31.200 M258.900 44.276 C 259.285 44.376,259.915 44.376,260.300 44.276 C 260.685 44.175,260.370 44.093,259.600 44.093 C 258.830 44.093,258.515 44.175,258.900 44.276 M294.999 53.480 C 295.658 53.586,296.347 53.881,296.529 54.136 C 296.753 54.449,296.809 54.405,296.700 54.000 C 296.600 53.631,296.012 53.378,295.169 53.344 C 293.915 53.292,293.901 53.303,294.999 53.480 M329.600 62.556 C 329.600 62.642,330.217 62.785,330.972 62.873 C 331.727 62.961,332.256 62.890,332.148 62.716 C 331.955 62.403,329.600 62.255,329.600 62.556 M62.493 66.800 C 62.493 67.570,62.575 67.885,62.676 67.500 C 62.776 67.115,62.776 66.485,62.676 66.100 C 62.575 65.715,62.493 66.030,62.493 66.800 M345.700 66.676 C 346.085 66.776,346.715 66.776,347.100 66.676 C 347.485 66.575,347.170 66.493,346.400 66.493 C 345.630 66.493,345.315 66.575,345.700 66.676 M381.799 75.880 C 382.458 75.986,383.147 76.281,383.329 76.536 C 383.553 76.849,383.609 76.805,383.500 76.400 C 383.400 76.031,382.812 75.778,381.969 75.744 C 380.715 75.692,380.701 75.703,381.799 75.880 M211.300 172.400 C 211.400 172.769,211.988 173.022,212.831 173.056 C 214.085 173.108,214.099 173.097,213.001 172.920 C 212.342 172.814,211.653 172.519,211.471 172.264 C 211.247 171.951,211.191 171.995,211.300 172.400 M234.956 180.171 C 234.835 180.485,234.816 181.160,234.914 181.671 C 235.052 182.397,235.103 182.323,235.146 181.333 C 235.175 180.637,235.425 179.976,235.700 179.865 C 236.092 179.707,236.089 179.656,235.687 179.632 C 235.406 179.614,235.076 179.857,234.956 180.171 M168.909 200.000 C 168.909 200.990,168.987 201.395,169.082 200.900 C 169.178 200.405,169.178 199.595,169.082 199.100 C 168.987 198.605,168.909 199.010,168.909 200.000 M368.854 208.271 C 368.818 209.114,368.565 209.603,368.100 209.724 C 367.444 209.896,367.445 209.910,368.113 209.954 C 368.954 210.008,369.333 209.221,369.086 207.929 C 368.948 207.205,368.897 207.281,368.854 208.271 M225.750 216.987 C 225.626 217.310,225.617 217.805,225.731 218.087 C 225.844 218.369,225.951 218.208,225.968 217.729 C 225.986 217.250,226.315 216.776,226.700 216.676 C 227.356 216.504,227.355 216.490,226.687 216.446 C 226.296 216.421,225.874 216.664,225.750 216.987 M163.734 220.800 C 163.787 221.596,164.025 221.810,164.905 221.849 C 165.867 221.891,165.883 221.875,165.030 221.725 C 164.425 221.618,163.976 221.216,163.859 220.676 C 163.701 219.946,163.680 219.966,163.734 220.800 M180.475 225.875 C 181.300 225.970,182.031 226.303,182.134 226.630 C 182.252 227.004,182.296 226.960,182.256 226.508 C 182.208 225.968,181.813 225.789,180.597 225.752 L 179.000 225.705 180.475 225.875 M16.556 244.571 C 16.435 244.885,16.416 245.560,16.514 246.071 C 16.652 246.795,16.703 246.719,16.746 245.729 C 16.782 244.886,17.035 244.397,17.500 244.276 C 18.156 244.104,18.155 244.090,17.487 244.046 C 17.096 244.021,16.676 244.257,16.556 244.571 M354.493 264.800 C 354.493 265.570,354.575 265.885,354.676 265.500 C 354.776 265.115,354.776 264.485,354.676 264.100 C 354.575 263.715,354.493 264.030,354.493 264.800 M7.356 280.171 C 7.235 280.485,7.216 281.160,7.314 281.671 C 7.452 282.397,7.503 282.323,7.546 281.333 C 7.575 280.637,7.825 279.976,8.100 279.865 C 8.492 279.707,8.489 279.656,8.087 279.632 C 7.806 279.614,7.476 279.857,7.356 280.171 M116.526 349.800 C 116.589 350.420,116.920 350.612,118.003 350.652 C 119.355 350.703,119.359 350.699,118.125 350.529 C 117.382 350.426,116.765 350.071,116.648 349.677 C 116.502 349.187,116.468 349.221,116.526 349.800 M152.100 359.200 C 152.200 359.569,152.788 359.822,153.631 359.856 C 154.885 359.908,154.899 359.897,153.801 359.720 C 153.142 359.614,152.453 359.319,152.271 359.064 C 152.047 358.751,151.991 358.795,152.100 359.200 M188.500 369.076 C 188.885 369.176,189.515 369.176,189.900 369.076 C 190.285 368.975,189.970 368.893,189.200 368.893 C 188.430 368.893,188.115 368.975,188.500 369.076 M238.900 381.600 C 239.000 381.969,239.588 382.222,240.431 382.256 C 241.685 382.308,241.699 382.297,240.601 382.120 C 239.942 382.014,239.253 381.719,239.071 381.464 C 238.847 381.151,238.791 381.195,238.900 381.600 M322.893 387.200 C 322.893 387.970,322.975 388.285,323.076 387.900 C 323.176 387.515,323.176 386.885,323.076 386.500 C 322.975 386.115,322.893 386.430,322.893 387.200 M275.300 391.476 C 275.685 391.576,276.315 391.576,276.700 391.476 C 277.085 391.375,276.770 391.293,276.000 391.293 C 275.230 391.293,274.915 391.375,275.300 391.476 " stroke="none" fill="#ff0000" fill-rule="evenodd"></path><path id="path8" d="" stroke="none" fill="#ff1400" fill-rule="evenodd"></path></g></svg>